<svg width="13" height="13" fill="none" xmlns="http://www.w3.org/2000/svg"><path d="M6.25 12.5C5.38542 12.5 4.57292 12.3359 3.8125 12.0078C3.05208 11.6797 2.39062 11.2344 1.82812 10.6719C1.26562 10.1094 0.820313 9.44792 0.492188 8.6875C0.164062 7.92708 0 7.11458 0 6.25C0 5.38542 0.164062 4.57292 0.492188 3.8125C0.820313 3.05208 1.26562 2.39062 1.82812 1.82812C2.39062 1.26562 3.05208 0.820313 3.8125 0.492188C4.57292 0.164062 5.38542 0 6.25 0C6.75 0 7.23698 0.0572917 7.71094 0.171875C8.1849 0.286458 8.64062 0.453125 9.07812 0.671875C9.23438 0.755208 9.33594 0.880208 9.38281 1.04688C9.42969 1.21354 9.40104 1.36979 9.29688 1.51562C9.19271 1.66146 9.05469 1.75521 8.88281 1.79688C8.71094 1.83854 8.54167 1.81771 8.375 1.73438C8.04167 1.57812 7.69531 1.45833 7.33594 1.375C6.97656 1.29167 6.61458 1.25 6.25 1.25C4.86458 1.25 3.6849 1.73698 2.71094 2.71094C1.73698 3.6849 1.25 4.86458 1.25 6.25C1.25 7.63542 1.73698 8.8151 2.71094 9.78906C3.6849 10.763 4.86458 11.25 6.25 11.25C7.63542 11.25 8.8151 10.763 9.78906 9.78906C10.763 8.8151 11.25 7.63542 11.25 6.25C11.25 6.16667 11.2474 6.08594 11.2422 6.00781C11.237 5.92969 11.2292 5.84896 11.2188 5.76562C11.1979 5.58854 11.2318 5.41927 11.3203 5.25781C11.4089 5.09635 11.5417 4.98958 11.7188 4.9375C11.8854 4.88542 12.0417 4.90104 12.1875 4.98438C12.3333 5.06771 12.4167 5.19271 12.4375 5.35938C12.4583 5.50521 12.474 5.65104 12.4844 5.79688C12.4948 5.94271 12.5 6.09375 12.5 6.25C12.5 7.11458 12.3359 7.92708 12.0078 8.6875C11.6797 9.44792 11.2344 10.1094 10.6719 10.6719C10.1094 11.2344 9.44792 11.6797 8.6875 12.0078C7.92708 12.3359 7.11458 12.5 6.25 12.5ZM5.375 7.375L11.1875 1.54688C11.3021 1.43229 11.4453 1.3724 11.6172 1.36719C11.7891 1.36198 11.9375 1.42188 12.0625 1.54688C12.1771 1.66146 12.2344 1.80729 12.2344 1.98438C12.2344 2.16146 12.1771 2.30729 12.0625 2.42188L5.8125 8.6875C5.6875 8.8125 5.54167 8.875 5.375 8.875C5.20833 8.875 5.0625 8.8125 4.9375 8.6875L3.15625 6.90625C3.04167 6.79167 2.98438 6.64583 2.98438 6.46875C2.98438 6.29167 3.04167 6.14583 3.15625 6.03125C3.27083 5.91667 3.41667 5.85938 3.59375 5.85938C3.77083 5.85938 3.91667 5.91667 4.03125 6.03125L5.375 7.375Z" fill="#0B66B0"/></svg>