<svg width="16" height="16" fill="none" xmlns="http://www.w3.org/2000/svg"><path id="task_alt" d="M8 16C6.89333 16 5.85333 15.79 4.88 15.37C3.90667 14.95 3.06 14.38 2.34 13.66C1.62 12.94 1.05 12.0933 0.63 11.12C0.21 10.1467 0 9.10667 0 8C0 6.89333 0.21 5.85333 0.63 4.88C1.05 3.90667 1.62 3.06 2.34 2.34C3.06 1.62 3.90667 1.05 4.88 0.63C5.85333 0.21 6.89333 0 8 0C8.64 0 9.26333 0.0733333 9.87 0.22C10.4767 0.366667 11.06 0.58 11.62 0.86C11.82 0.966667 11.95 1.12667 12.01 1.34C12.07 1.55333 12.0333 1.75333 11.9 1.94C11.7667 2.12667 11.59 2.24667 11.37 2.3C11.15 2.35333 10.9333 2.32667 10.72 2.22C10.2933 2.02 9.85 1.86667 9.39 1.76C8.93 1.65333 8.46667 1.6 8 1.6C6.22667 1.6 4.71667 2.22333 3.47 3.47C2.22333 4.71667 1.6 6.22667 1.6 8C1.6 9.77333 2.22333 11.2833 3.47 12.53C4.71667 13.7767 6.22667 14.4 8 14.4C9.77333 14.4 11.2833 13.7767 12.53 12.53C13.7767 11.2833 14.4 9.77333 14.4 8C14.4 7.89333 14.3967 7.79 14.39 7.69C14.3833 7.59 14.3733 7.48667 14.36 7.38C14.3333 7.15333 14.3767 6.93667 14.49 6.73C14.6033 6.52333 14.7733 6.38667 15 6.32C15.2133 6.25333 15.4133 6.27333 15.6 6.38C15.7867 6.48667 15.8933 6.64667 15.92 6.86C15.9467 7.04667 15.9667 7.23333 15.98 7.42C15.9933 7.60667 16 7.8 16 8C16 9.10667 15.79 10.1467 15.37 11.12C14.95 12.0933 14.38 12.94 13.66 13.66C12.94 14.38 12.0933 14.95 11.12 15.37C10.1467 15.79 9.10667 16 8 16ZM6.88 9.44L14.32 1.98C14.4667 1.83333 14.65 1.75667 14.87 1.75C15.09 1.74333 15.28 1.82 15.44 1.98C15.5867 2.12667 15.66 2.31333 15.66 2.54C15.66 2.76667 15.5867 2.95333 15.44 3.1L7.44 11.12C7.28 11.28 7.09333 11.36 6.88 11.36C6.66667 11.36 6.48 11.28 6.32 11.12L4.04 8.84C3.89333 8.69333 3.82 8.50667 3.82 8.28C3.82 8.05333 3.89333 7.86667 4.04 7.72C4.18667 7.57333 4.37333 7.5 4.6 7.5C4.82667 7.5 5.01333 7.57333 5.16 7.72L6.88 9.44Z" fill="#EFEEEE"/></svg>